<svg width="43" height="34" viewBox="0 0 43 34" fill="none" xmlns="http://www.w3.org/2000/svg">
<path fill-rule="evenodd" clip-rule="evenodd" d="M8.7067 1.29576C9.09808 0.794229 9.69926 0.500977 10.336 0.500977H33.3524C33.9892 0.500977 34.5903 0.794229 34.9817 1.29576L42.0637 10.3708C42.6889 11.1719 42.6369 12.3082 41.9413 13.0491L23.3511 32.8491C22.9606 33.265 22.4152 33.501 21.8442 33.501C21.2733 33.501 20.7278 33.265 20.3373 32.8491L1.74715 13.0491C1.0515 12.3082 0.999563 11.1719 1.62473 10.3708L8.7067 1.29576ZM11.3451 4.62598L5.96924 11.5148L21.8442 28.4229L37.7192 11.5147L32.3433 4.62598H11.3451Z" fill="white"/>
<path d="M17.0246 6.00098H14.2705V11.501L17.0246 14.251V6.00098Z" fill="#E5E5E5"/>
<path d="M21.1557 17.001L18.4016 14.251V22.501L21.1557 25.251V17.001Z" fill="#E5E5E5"/>
<path d="M0.5 33.501H19.7787L17.7131 31.4385H0.5V33.501Z" fill="#E5E5E5"/>
</svg>
