<svg width="31" height="24" viewBox="0 0 31 24" fill="none" xmlns="http://www.w3.org/2000/svg">
<path fill-rule="evenodd" clip-rule="evenodd" d="M5.95966 0.578026C6.24389 0.213275 6.68045 0 7.14286 0H23.8571C24.3196 0 24.7561 0.213275 25.0403 0.578026L30.1832 7.17803C30.6372 7.76065 30.5995 8.58706 30.0943 9.12591L16.5943 23.5259C16.3107 23.8284 15.9146 24 15.5 24C15.0854 24 14.6893 23.8284 14.4057 23.5259L0.905701 9.12591C0.400527 8.58706 0.362813 7.76065 0.816806 7.17803L5.95966 0.578026ZM7.87566 3L3.97175 8.01002L15.5 20.3068L27.0283 8.01002L23.1244 3H7.87566Z" fill="black"/>
<path d="M12 4H10V8L12 10V4Z" fill="#A0A0A0"/>
<path d="M15 12L13 10V16L15 18V12Z" fill="#A0A0A0"/>
<path d="M0 24H14L12.5 22.5H0V24Z" fill="#A0A0A0"/>
</svg>
