<svg width="69" height="23" viewBox="0 0 69 23" fill="none" xmlns="http://www.w3.org/2000/svg">
<path d="M4.94 7.176C4.748 7.08 4.736 6.9 4.904 6.636C4.952 6.564 5.084 6.456 5.3 6.312C5.54 6.144 5.804 5.976 6.092 5.808C6.38 5.64 6.644 5.496 6.884 5.376C7.148 5.232 7.316 5.16 7.388 5.16C7.484 5.136 7.556 5.172 7.604 5.268C7.676 5.34 7.688 5.436 7.64 5.556C7.592 5.604 7.496 5.676 7.352 5.772C7.208 5.868 6.86 6.096 6.308 6.456C6.14 6.576 5.96 6.696 5.768 6.816C5.6 6.912 5.492 6.984 5.444 7.032C5.252 7.152 5.12 7.212 5.048 7.212C5 7.212 4.964 7.2 4.94 7.176ZM27.944 9.588C27.968 9.684 27.956 9.768 27.908 9.84C27.884 9.888 27.8 9.936 27.656 9.984C27.416 10.104 27.104 10.2 26.72 10.272C26.336 10.344 25.928 10.404 25.496 10.452C25.088 10.476 24.68 10.5 24.272 10.524C23.864 10.524 23.528 10.524 23.264 10.524C22.376 10.524 21.668 10.476 21.14 10.38C20.612 10.284 20.216 10.14 19.952 9.948C19.76 9.804 19.592 9.6 19.448 9.336C19.328 9.072 19.268 8.808 19.268 8.544C19.244 8.472 19.112 8.436 18.872 8.436C18.464 8.436 17.972 8.508 17.396 8.652C16.844 8.772 16.268 8.928 15.668 9.12C15.068 9.312 14.492 9.528 13.94 9.768C13.388 10.008 12.908 10.224 12.5 10.416C12.308 10.416 12.176 10.38 12.104 10.308C12.056 10.26 12.02 10.188 11.996 10.092C11.996 9.996 12.02 9.924 12.068 9.876C12.116 9.804 12.296 9.624 12.608 9.336C12.944 9.024 13.388 8.664 13.94 8.256C14.084 8.136 14.216 8.028 14.336 7.932C14.48 7.812 14.576 7.728 14.624 7.68L14.84 7.5L14.66 7.536C13.652 7.68 11.6 8.292 8.504 9.372C7.4 9.756 6.464 10.08 5.696 10.344C4.952 10.584 4.328 10.776 3.824 10.92C3.32 11.064 2.912 11.172 2.6 11.244C2.288 11.316 2 11.352 1.736 11.352C1.472 11.352 1.292 11.34 1.196 11.316C0.956 11.196 0.812 11.076 0.764 10.956C0.668 10.74 0.74 10.452 0.98 10.092C1.052 9.972 1.184 9.816 1.376 9.624C1.568 9.432 1.772 9.24 1.988 9.048C2.204 8.832 2.42 8.64 2.636 8.472C2.876 8.28 3.068 8.136 3.212 8.04C3.332 7.944 3.452 7.884 3.572 7.86C3.956 7.86 4.088 8.064 3.968 8.472C3.92 8.64 3.836 8.724 3.716 8.724C3.692 8.724 3.668 8.724 3.644 8.724C3.644 8.7 3.632 8.688 3.608 8.688C3.56 8.688 3.512 8.7 3.464 8.724C3.44 8.724 3.356 8.784 3.212 8.904C2.876 9.192 2.552 9.492 2.24 9.804C1.928 10.092 1.712 10.32 1.592 10.488L1.484 10.632L1.844 10.596C2.252 10.572 2.864 10.44 3.68 10.2C4.52 9.96 5.768 9.552 7.424 8.976C8.48 8.592 9.392 8.28 10.16 8.04C10.952 7.776 11.636 7.56 12.212 7.392C12.788 7.224 13.268 7.092 13.652 6.996C14.06 6.9 14.42 6.84 14.732 6.816H15.02C15.548 6.816 15.812 6.984 15.812 7.32C15.812 7.464 15.74 7.62 15.596 7.788C15.476 7.932 15.212 8.16 14.804 8.472C14.684 8.592 14.564 8.688 14.444 8.76C14.348 8.832 14.3 8.88 14.3 8.904C14.564 8.808 14.888 8.7 15.272 8.58C15.656 8.436 16.064 8.304 16.496 8.184C16.928 8.04 17.348 7.932 17.756 7.86C18.164 7.764 18.5 7.716 18.764 7.716C19.196 7.716 19.508 7.812 19.7 8.004C19.844 8.124 19.952 8.352 20.024 8.688C20.072 8.928 20.108 9.072 20.132 9.12C20.3 9.408 20.66 9.588 21.212 9.66C21.452 9.708 21.68 9.744 21.896 9.768C22.136 9.768 22.532 9.78 23.084 9.804H23.768C24.56 9.804 25.232 9.78 25.784 9.732C26.36 9.684 26.852 9.6 27.26 9.48C27.452 9.408 27.596 9.372 27.692 9.372C27.836 9.372 27.92 9.444 27.944 9.588ZM38.8028 9.264C38.9228 9.264 39.0068 9.312 39.0548 9.408C39.1028 9.48 39.1028 9.564 39.0548 9.66C38.9828 9.78 38.6468 9.936 38.0468 10.128C37.4708 10.32 36.8228 10.524 36.1028 10.74C35.3828 10.932 34.6988 11.112 34.0508 11.28C33.4028 11.424 32.9708 11.508 32.7548 11.532C32.5868 11.58 32.4068 11.604 32.2148 11.604C32.0228 11.604 31.8308 11.604 31.6388 11.604C31.4708 11.604 31.3148 11.604 31.1708 11.604C31.0508 11.604 30.9428 11.592 30.8468 11.568C30.1028 11.496 29.6228 11.124 29.4068 10.452V10.308C29.3828 10.308 29.3708 10.296 29.3708 10.272C29.3468 10.248 29.1668 10.344 28.8308 10.56C28.5188 10.752 28.2428 10.92 28.0028 11.064C27.6668 11.28 27.3308 11.52 26.9948 11.784C26.6828 12.024 26.3948 12.276 26.1308 12.54C26.1068 12.564 26.0468 12.576 25.9508 12.576C25.8788 12.576 25.8188 12.564 25.7708 12.54C25.6508 12.492 25.6148 12.36 25.6628 12.144C25.6868 11.904 25.9148 11.508 26.3468 10.956C26.8028 10.404 27.3068 9.828 27.8588 9.228C28.4348 8.604 28.9868 8.028 29.5148 7.5C30.0428 6.948 30.4148 6.576 30.6308 6.384C30.9668 6.072 31.4828 5.628 32.1788 5.052C32.8988 4.452 33.6548 3.852 34.4468 3.252C35.2628 2.652 36.0548 2.124 36.8228 1.668C37.5908 1.212 38.2028 0.971999 38.6588 0.948H38.8028C39.2108 0.948 39.3908 1.116 39.3428 1.452C39.3428 1.668 39.1388 1.98 38.7308 2.388C38.3468 2.796 37.8548 3.24 37.2548 3.72C36.6548 4.2 35.9828 4.692 35.2388 5.196C34.5188 5.676 33.8108 6.132 33.1148 6.564C32.4428 6.972 31.8308 7.308 31.2788 7.572C30.7508 7.836 30.3788 7.98 30.1628 8.004H29.9828L29.4788 8.508C29.3108 8.676 29.1188 8.88 28.9028 9.12C28.7108 9.336 28.5188 9.54 28.3268 9.732C28.1588 9.9 28.0148 10.056 27.8948 10.2C27.7988 10.32 27.7508 10.38 27.7508 10.38C27.7748 10.38 27.8108 10.368 27.8588 10.344C27.8828 10.32 27.9428 10.284 28.0388 10.236C28.3748 10.044 28.8668 9.78 29.5148 9.444C30.1868 9.084 30.8828 8.748 31.6028 8.436C32.3468 8.1 33.0548 7.812 33.7268 7.572C34.3988 7.332 34.9268 7.212 35.3108 7.212C35.5268 7.212 35.6348 7.296 35.6348 7.464C35.6348 7.584 35.5868 7.668 35.4908 7.716C35.4188 7.764 35.2148 7.824 34.8788 7.896C34.6148 7.968 34.2548 8.088 33.7988 8.256C33.3668 8.4 32.9108 8.568 32.4308 8.76C31.9508 8.952 31.4948 9.156 31.0628 9.372C30.6548 9.564 30.3308 9.732 30.0908 9.876C30.0428 9.9 30.0188 9.984 30.0188 10.128C30.0668 10.416 30.1748 10.608 30.3428 10.704C30.5828 10.872 30.9908 10.956 31.5668 10.956C32.0468 10.956 32.5748 10.908 33.1508 10.812C33.7268 10.716 34.3028 10.596 34.8788 10.452C35.4788 10.284 36.0548 10.116 36.6068 9.948C37.1588 9.756 37.6628 9.588 38.1188 9.444C38.4788 9.324 38.7068 9.264 38.8028 9.264ZM31.8908 6.204C31.7708 6.324 31.6628 6.432 31.5668 6.528C31.4708 6.6 31.4228 6.648 31.4228 6.672C31.3988 6.696 31.4588 6.672 31.6028 6.6C31.7468 6.504 31.9868 6.36 32.3228 6.168C32.7308 5.928 33.1628 5.664 33.6188 5.376C34.0748 5.088 34.5308 4.788 34.9868 4.476C35.4428 4.164 35.8748 3.864 36.2828 3.576C36.6908 3.264 37.0508 2.988 37.3628 2.748C37.5548 2.556 37.7708 2.352 38.0108 2.136C38.2508 1.92 38.3828 1.788 38.4068 1.74C38.4308 1.716 38.4308 1.704 38.4068 1.704C38.4068 1.704 38.3468 1.728 38.2268 1.776C37.9148 1.896 37.5188 2.1 37.0388 2.388C36.5588 2.652 36.0428 2.988 35.4908 3.396C34.9388 3.78 34.3508 4.212 33.7268 4.692C33.1028 5.172 32.4908 5.676 31.8908 6.204ZM49.2298 8.724C49.2298 8.844 49.1818 8.928 49.0858 8.976C48.9898 9 48.7018 9.072 48.2218 9.192C47.8138 9.288 47.4058 9.396 46.9978 9.516C46.6138 9.636 46.2058 9.768 45.7738 9.912C45.3418 10.056 44.8738 10.224 44.3698 10.416C43.8658 10.608 43.3018 10.836 42.6778 11.1L42.1018 11.352L41.5978 11.892C41.3578 12.156 41.1178 12.42 40.8778 12.684C40.6378 12.948 40.3498 13.236 40.0138 13.548C39.7018 13.884 39.3298 14.268 38.8978 14.7C38.4898 15.132 37.9858 15.648 37.3858 16.248C36.8098 16.824 36.3298 17.304 35.9458 17.688C35.5378 18.096 35.2018 18.432 34.9378 18.696C34.6498 18.96 34.4098 19.188 34.2178 19.38C34.0018 19.596 33.7858 19.788 33.5698 19.956C31.8658 21.468 30.5338 22.368 29.5738 22.656C29.5018 22.68 29.4178 22.692 29.3218 22.692C29.2018 22.692 29.0938 22.692 28.9978 22.692H28.8178C28.3858 22.572 28.1698 22.284 28.1698 21.828C28.1698 21.252 28.4578 20.58 29.0338 19.812C29.5858 19.068 30.2458 18.324 31.0138 17.58C31.7818 16.86 32.5618 16.188 33.3538 15.564C34.1458 14.964 34.7698 14.508 35.2258 14.196C36.1138 13.596 37.0138 13.044 37.9258 12.54C38.8378 12.06 39.8698 11.568 41.0218 11.064C41.2858 10.944 41.4418 10.86 41.4898 10.812C41.5618 10.764 41.7178 10.608 41.9578 10.344C42.1978 10.08 42.4378 9.768 42.6778 9.408C42.9418 9.048 43.1458 8.748 43.2898 8.508C43.3138 8.46 43.3258 8.436 43.3258 8.436C43.2778 8.436 43.1578 8.496 42.9658 8.616C42.7978 8.736 42.6898 8.82 42.6418 8.868C42.4738 9.036 42.3658 9.12 42.3178 9.12C42.2938 9.096 42.2698 9.084 42.2458 9.084C42.1978 9.084 42.1618 9.096 42.1378 9.12C42.1138 9.12 42.0538 9.144 41.9578 9.192C41.7898 9.288 41.5138 9.444 41.1298 9.66C40.7698 9.852 40.3858 10.044 39.9778 10.236C39.5938 10.404 39.2098 10.56 38.8258 10.704C38.4418 10.848 38.1418 10.92 37.9258 10.92C37.7338 10.92 37.5778 10.848 37.4578 10.704C37.3618 10.56 37.3618 10.38 37.4578 10.164C37.5778 9.924 37.8538 9.636 38.2858 9.3C38.7418 8.964 39.2458 8.64 39.7978 8.328C40.3498 8.016 40.8898 7.752 41.4178 7.536C41.9698 7.32 42.4138 7.212 42.7498 7.212C42.8938 7.212 42.9898 7.224 43.0378 7.248C43.2058 7.296 43.3138 7.392 43.3618 7.536C43.3858 7.536 43.4338 7.524 43.5058 7.5C43.5538 7.5 43.6018 7.5 43.6498 7.5C43.6978 7.476 43.7458 7.464 43.7938 7.464C43.9858 7.464 44.1298 7.536 44.2258 7.68C44.2498 7.728 44.2618 7.776 44.2618 7.824C44.2858 7.848 44.2858 7.908 44.2618 8.004C44.2618 8.124 44.2138 8.28 44.1178 8.472C44.0458 8.664 43.9378 8.856 43.7938 9.048C43.6738 9.24 43.5538 9.432 43.4338 9.624C43.3138 9.792 43.2178 9.924 43.1458 10.02C43.0258 10.188 42.9778 10.272 43.0018 10.272C43.0738 10.2 43.3858 10.068 43.9378 9.876C44.4898 9.66 45.1018 9.444 45.7738 9.228C46.4458 9.012 47.0818 8.832 47.6818 8.688C48.3058 8.52 48.7138 8.436 48.9058 8.436C48.9538 8.436 49.0258 8.46 49.1218 8.508C49.1938 8.58 49.2298 8.652 49.2298 8.724ZM42.4618 8.004C42.4858 7.956 42.4618 7.944 42.3898 7.968C42.2938 7.992 42.1258 8.052 41.8858 8.148C41.6698 8.22 41.4658 8.292 41.2738 8.364C40.8898 8.556 40.4338 8.808 39.9058 9.12C39.4018 9.432 39.0298 9.684 38.7898 9.876L38.7178 9.948L38.8618 9.912C38.9098 9.864 38.9818 9.828 39.0778 9.804C39.1738 9.756 39.2698 9.708 39.3658 9.66C39.4858 9.612 39.7018 9.516 40.0138 9.372C40.3258 9.228 40.6378 9.072 40.9498 8.904C41.2858 8.736 41.5978 8.568 41.8858 8.4C42.1738 8.232 42.3658 8.1 42.4618 8.004ZM40.3738 12.108L40.0858 12.252C39.1978 12.66 38.2138 13.188 37.1338 13.836C36.0538 14.484 34.9978 15.192 33.9658 15.96C32.9098 16.728 31.9498 17.544 31.0858 18.408C30.2218 19.272 29.5738 20.136 29.1418 21C29.0218 21.24 28.9498 21.444 28.9258 21.612C28.8778 21.804 28.8778 21.924 28.9258 21.972C29.0458 21.972 29.1538 21.96 29.2498 21.936C29.3458 21.936 29.4538 21.924 29.5738 21.9C29.9818 21.756 30.4618 21.492 31.0138 21.108C31.5418 20.724 32.1298 20.256 32.7778 19.704C33.0658 19.464 33.5458 19.02 34.2178 18.372C34.8658 17.724 35.5618 17.016 36.3058 16.248C37.0738 15.504 37.8058 14.772 38.5018 14.052C39.2218 13.332 39.7498 12.792 40.0858 12.432L40.3738 12.108ZM55.9576 9.48C56.1256 9.48 56.2096 9.576 56.2096 9.768C56.2096 9.84 56.1736 9.9 56.1016 9.948C55.9096 10.116 55.4656 10.308 54.7696 10.524C54.0976 10.716 53.3536 10.908 52.5376 11.1C51.7456 11.268 50.9776 11.412 50.2336 11.532C49.4896 11.652 48.9616 11.712 48.6496 11.712C48.3856 11.712 48.2056 11.7 48.1096 11.676C47.5816 11.604 47.2936 11.352 47.2456 10.92C47.1976 10.656 47.2816 10.344 47.4976 9.984C47.7136 9.6 48.0136 9.216 48.3976 8.832C48.8776 8.352 49.4056 7.968 49.9816 7.68C50.5576 7.368 51.0376 7.212 51.4216 7.212C51.6136 7.212 51.7696 7.26 51.8896 7.356C52.0336 7.428 52.1056 7.56 52.1056 7.752C52.0816 7.968 51.9376 8.208 51.6736 8.472C51.4096 8.712 51.1096 8.94 50.7736 9.156C50.4376 9.348 50.0896 9.516 49.7296 9.66C49.3696 9.804 49.0936 9.876 48.9016 9.876C48.7816 9.876 48.6736 9.852 48.5776 9.804C48.5296 9.78 48.4936 9.78 48.4696 9.804C48.4456 9.828 48.3736 9.936 48.2536 10.128C48.0616 10.416 47.9656 10.644 47.9656 10.812V10.92L48.1456 10.992C48.2176 11.016 48.3616 11.028 48.5776 11.028C49.0336 11.028 49.5616 10.992 50.1616 10.92C50.7616 10.824 51.3616 10.704 51.9616 10.56C52.5856 10.416 53.1856 10.272 53.7616 10.128C54.3376 9.96 54.8416 9.804 55.2736 9.66C55.6336 9.54 55.8616 9.48 55.9576 9.48ZM49.7296 8.652C49.5856 8.748 49.4296 8.868 49.2616 9.012C49.0936 9.132 49.0216 9.204 49.0456 9.228L49.1176 9.192C49.1416 9.192 49.1536 9.192 49.1536 9.192C49.1776 9.168 49.2016 9.156 49.2256 9.156C49.4416 9.084 49.7176 8.952 50.0536 8.76C50.4136 8.568 50.7136 8.376 50.9536 8.184C51.1696 7.992 51.2296 7.908 51.1336 7.932C50.9656 7.98 50.7496 8.076 50.4856 8.22C50.2216 8.34 49.9696 8.484 49.7296 8.652ZM68.7295 9.696C68.8495 9.84 68.8495 9.996 68.7295 10.164C68.6095 10.308 68.3935 10.44 68.0815 10.56C67.7695 10.68 67.4215 10.788 67.0375 10.884C66.6775 10.98 66.3055 11.052 65.9215 11.1C65.5615 11.148 65.2735 11.172 65.0575 11.172C64.7455 11.172 64.5535 11.16 64.4815 11.136C64.0015 10.944 63.8215 10.524 63.9415 9.876C63.9415 9.708 63.9895 9.504 64.0855 9.264C64.1095 9.192 64.1215 9.096 64.1215 8.976L64.1575 8.868C64.1575 8.772 63.3175 9.204 61.6375 10.164C61.2055 10.428 60.8095 10.656 60.4495 10.848C60.1135 11.016 59.9215 11.112 59.8735 11.136C59.6815 11.184 59.5615 11.208 59.5135 11.208C59.3215 11.208 59.1655 11.112 59.0455 10.92C58.9495 10.752 58.9255 10.548 58.9735 10.308C59.0455 10.044 59.2015 9.636 59.4415 9.084L59.7655 8.364L59.6575 8.4C59.4415 8.52 58.9975 8.796 58.3255 9.228C57.6535 9.66 56.8615 10.2 55.9495 10.848C55.4935 11.184 55.1695 11.412 54.9775 11.532C54.8095 11.652 54.6655 11.712 54.5455 11.712C54.5215 11.712 54.4975 11.712 54.4735 11.712C54.4735 11.688 54.4615 11.676 54.4375 11.676C54.3175 11.628 54.2335 11.556 54.1855 11.46C54.1615 11.364 54.1735 11.256 54.2215 11.136C54.2215 11.088 54.2335 11.04 54.2575 10.992C54.2815 10.944 54.3535 10.836 54.4735 10.668C54.6175 10.5 54.8335 10.236 55.1215 9.876C55.4335 9.516 55.8535 9.012 56.3815 8.364C56.5975 8.1 56.7655 7.896 56.8855 7.752C57.0295 7.584 57.1375 7.464 57.2095 7.392C57.3055 7.296 57.3775 7.248 57.4255 7.248C57.4735 7.224 57.5215 7.212 57.5695 7.212C57.7375 7.26 57.8215 7.356 57.8215 7.5C57.8695 7.548 57.8695 7.62 57.8215 7.716C57.7975 7.86 57.7735 8.016 57.7495 8.184C57.7255 8.328 57.7135 8.412 57.7135 8.436C57.6655 8.556 57.5815 8.616 57.4615 8.616C57.4375 8.616 57.4015 8.604 57.3535 8.58C57.3055 8.556 57.2815 8.532 57.2815 8.508C57.2575 8.484 57.2095 8.52 57.1375 8.616C57.0655 8.688 56.9215 8.856 56.7055 9.12C56.6575 9.192 56.5975 9.276 56.5255 9.372C56.4775 9.444 56.4295 9.504 56.3815 9.552C56.3335 9.624 56.2975 9.672 56.2735 9.696C56.2495 9.696 56.2615 9.684 56.3095 9.66C57.0775 9.108 57.7735 8.64 58.3975 8.256C59.0455 7.872 59.4775 7.632 59.6935 7.536C59.8375 7.464 59.9815 7.428 60.1255 7.428C60.4135 7.428 60.5815 7.584 60.6295 7.896C60.6535 7.992 60.6295 8.124 60.5575 8.292C60.5095 8.46 60.4015 8.724 60.2335 9.084C60.1135 9.372 59.9935 9.648 59.8735 9.912C59.7775 10.152 59.7295 10.296 59.7295 10.344C59.7295 10.368 59.8255 10.332 60.0175 10.236C60.2095 10.116 60.6895 9.84 61.4575 9.408C62.3695 8.88 63.0175 8.52 63.4015 8.328C63.8095 8.136 64.1095 8.04 64.3015 8.04H64.4095C64.6015 8.088 64.7335 8.184 64.8055 8.328C64.8535 8.4 64.8775 8.532 64.8775 8.724C64.8775 8.892 64.8295 9.12 64.7335 9.408C64.6375 9.864 64.6015 10.152 64.6255 10.272C64.6255 10.368 64.7935 10.416 65.1295 10.416C65.4895 10.392 65.9215 10.332 66.4255 10.236C66.9295 10.116 67.4935 9.948 68.1175 9.732C68.3335 9.66 68.4775 9.624 68.5495 9.624C68.5735 9.624 68.6335 9.648 68.7295 9.696Z" fill="black"/>
</svg>
