<svg width="46" height="15" viewBox="0 0 46 15" fill="none" xmlns="http://www.w3.org/2000/svg">
<path d="M2.96 4.28498C2.832 4.22098 2.824 4.10098 2.936 3.92498C2.968 3.87698 3.056 3.80498 3.2 3.70898C3.36 3.59698 3.536 3.48498 3.728 3.37298C3.92 3.26098 4.096 3.16498 4.256 3.08498C4.432 2.98898 4.544 2.94098 4.592 2.94098C4.656 2.92498 4.704 2.94898 4.736 3.01298C4.784 3.06098 4.792 3.12498 4.76 3.20498C4.728 3.23698 4.664 3.28498 4.568 3.34898C4.472 3.41298 4.24 3.56498 3.872 3.80498C3.76 3.88498 3.64 3.96498 3.512 4.04498C3.4 4.10898 3.328 4.15698 3.296 4.18898C3.168 4.26898 3.08 4.30898 3.032 4.30898C3 4.30898 2.976 4.30098 2.96 4.28498ZM18.296 5.89298C18.312 5.95698 18.304 6.01298 18.272 6.06098C18.256 6.09298 18.2 6.12498 18.104 6.15698C17.944 6.23698 17.736 6.30098 17.48 6.34898C17.224 6.39698 16.952 6.43698 16.664 6.46898C16.392 6.48498 16.12 6.50098 15.848 6.51698C15.576 6.51698 15.352 6.51698 15.176 6.51698C14.584 6.51698 14.112 6.48498 13.76 6.42098C13.408 6.35698 13.144 6.26098 12.968 6.13298C12.84 6.03698 12.728 5.90098 12.632 5.72498C12.552 5.54898 12.512 5.37298 12.512 5.19698C12.496 5.14898 12.408 5.12498 12.248 5.12498C11.976 5.12498 11.648 5.17298 11.264 5.26898C10.896 5.34898 10.512 5.45298 10.112 5.58098C9.712 5.70898 9.328 5.85298 8.96 6.01298C8.592 6.17298 8.272 6.31698 8 6.44498C7.872 6.44498 7.784 6.42098 7.736 6.37298C7.704 6.34098 7.68 6.29298 7.664 6.22898C7.664 6.16498 7.68 6.11698 7.712 6.08498C7.744 6.03698 7.864 5.91698 8.072 5.72498C8.296 5.51698 8.592 5.27698 8.96 5.00498C9.056 4.92498 9.144 4.85298 9.224 4.78898C9.32 4.70898 9.384 4.65298 9.416 4.62098L9.56 4.50098L9.44 4.52498C8.768 4.62098 7.4 5.02898 5.336 5.74898C4.6 6.00498 3.976 6.22098 3.464 6.39698C2.968 6.55698 2.552 6.68498 2.216 6.78098C1.88 6.87698 1.608 6.94898 1.4 6.99698C1.192 7.04498 1 7.06898 0.824 7.06898C0.648 7.06898 0.528 7.06098 0.464 7.04498C0.304 6.96498 0.208 6.88498 0.176 6.80498C0.112 6.66098 0.16 6.46898 0.32 6.22898C0.368 6.14898 0.456 6.04498 0.584 5.91698C0.712 5.78898 0.848 5.66098 0.992 5.53298C1.136 5.38898 1.28 5.26098 1.424 5.14898C1.584 5.02098 1.712 4.92498 1.808 4.86098C1.888 4.79698 1.968 4.75698 2.048 4.74098C2.304 4.74098 2.392 4.87698 2.312 5.14898C2.28 5.26098 2.224 5.31698 2.144 5.31698C2.128 5.31698 2.112 5.31698 2.096 5.31698C2.096 5.30098 2.088 5.29298 2.072 5.29298C2.04 5.29298 2.008 5.30098 1.976 5.31698C1.96 5.31698 1.904 5.35698 1.808 5.43698C1.584 5.62898 1.368 5.82898 1.16 6.03698C0.952 6.22898 0.808 6.38098 0.728 6.49298L0.656 6.58898L0.896 6.56498C1.168 6.54898 1.576 6.46098 2.12 6.30098C2.68 6.14098 3.512 5.86898 4.616 5.48498C5.32 5.22898 5.928 5.02098 6.44 4.86098C6.968 4.68498 7.424 4.54098 7.808 4.42898C8.192 4.31698 8.512 4.22898 8.768 4.16498C9.04 4.10098 9.28 4.06098 9.488 4.04498H9.68C10.032 4.04498 10.208 4.15698 10.208 4.38098C10.208 4.47698 10.16 4.58098 10.064 4.69298C9.984 4.78898 9.808 4.94098 9.536 5.14898C9.456 5.22898 9.376 5.29298 9.296 5.34098C9.232 5.38898 9.2 5.42098 9.2 5.43698C9.376 5.37298 9.592 5.30098 9.848 5.22098C10.104 5.12498 10.376 5.03698 10.664 4.95698C10.952 4.86098 11.232 4.78898 11.504 4.74098C11.776 4.67698 12 4.64498 12.176 4.64498C12.464 4.64498 12.672 4.70898 12.8 4.83698C12.896 4.91698 12.968 5.06898 13.016 5.29298C13.048 5.45298 13.072 5.54898 13.088 5.58098C13.2 5.77298 13.44 5.89298 13.808 5.94098C13.968 5.97298 14.12 5.99698 14.264 6.01298C14.424 6.01298 14.688 6.02098 15.056 6.03698H15.512C16.04 6.03698 16.488 6.02098 16.856 5.98898C17.24 5.95698 17.568 5.90098 17.84 5.82098C17.968 5.77298 18.064 5.74898 18.128 5.74898C18.224 5.74898 18.28 5.79698 18.296 5.89298ZM25.5352 5.67698C25.6152 5.67698 25.6712 5.70898 25.7032 5.77298C25.7352 5.82098 25.7352 5.87698 25.7032 5.94098C25.6552 6.02098 25.4312 6.12498 25.0312 6.25298C24.6472 6.38098 24.2152 6.51698 23.7352 6.66098C23.2552 6.78898 22.7992 6.90898 22.3672 7.02098C21.9352 7.11698 21.6472 7.17298 21.5032 7.18898C21.3912 7.22098 21.2712 7.23698 21.1432 7.23698C21.0152 7.23698 20.8872 7.23698 20.7592 7.23698C20.6472 7.23698 20.5432 7.23698 20.4472 7.23698C20.3672 7.23698 20.2952 7.22898 20.2312 7.21298C19.7352 7.16498 19.4152 6.91698 19.2712 6.46898V6.37298C19.2552 6.37298 19.2472 6.36498 19.2472 6.34898C19.2312 6.33298 19.1112 6.39698 18.8872 6.54098C18.6792 6.66898 18.4952 6.78098 18.3352 6.87698C18.1112 7.02098 17.8872 7.18098 17.6632 7.35698C17.4552 7.51698 17.2632 7.68498 17.0872 7.86098C17.0712 7.87698 17.0312 7.88498 16.9672 7.88498C16.9192 7.88498 16.8792 7.87698 16.8472 7.86098C16.7672 7.82898 16.7432 7.74098 16.7752 7.59698C16.7912 7.43698 16.9432 7.17298 17.2312 6.80498C17.5352 6.43698 17.8712 6.05298 18.2392 5.65298C18.6232 5.23698 18.9912 4.85298 19.3432 4.50098C19.6952 4.13298 19.9432 3.88498 20.0872 3.75698C20.3112 3.54898 20.6552 3.25298 21.1192 2.86898C21.5992 2.46898 22.1032 2.06898 22.6312 1.66898C23.1752 1.26898 23.7032 0.916976 24.2152 0.612977C24.7272 0.308976 25.1352 0.148976 25.4392 0.132976H25.5352C25.8072 0.132976 25.9272 0.244976 25.8952 0.468976C25.8952 0.612976 25.7592 0.820976 25.4872 1.09298C25.2312 1.36498 24.9032 1.66098 24.5032 1.98098C24.1032 2.30098 23.6552 2.62898 23.1592 2.96498C22.6792 3.28498 22.2072 3.58898 21.7432 3.87698C21.2952 4.14898 20.8872 4.37298 20.5192 4.54898C20.1672 4.72498 19.9192 4.82098 19.7752 4.83698H19.6552L19.3192 5.17298C19.2072 5.28498 19.0792 5.42098 18.9352 5.58098C18.8072 5.72498 18.6792 5.86098 18.5512 5.98898C18.4392 6.10098 18.3432 6.20498 18.2632 6.30098C18.1992 6.38098 18.1672 6.42098 18.1672 6.42098C18.1832 6.42098 18.2072 6.41298 18.2392 6.39698C18.2552 6.38098 18.2952 6.35698 18.3592 6.32498C18.5832 6.19698 18.9112 6.02098 19.3432 5.79698C19.7912 5.55698 20.2552 5.33298 20.7352 5.12498C21.2312 4.90098 21.7032 4.70898 22.1512 4.54898C22.5992 4.38898 22.9512 4.30898 23.2072 4.30898C23.3512 4.30898 23.4232 4.36498 23.4232 4.47698C23.4232 4.55698 23.3912 4.61298 23.3272 4.64498C23.2792 4.67698 23.1432 4.71698 22.9192 4.76498C22.7432 4.81298 22.5032 4.89298 22.1992 5.00498C21.9112 5.10098 21.6072 5.21298 21.2872 5.34098C20.9672 5.46898 20.6632 5.60498 20.3752 5.74898C20.1032 5.87698 19.8872 5.98898 19.7272 6.08498C19.6952 6.10098 19.6792 6.15698 19.6792 6.25298C19.7112 6.44498 19.7832 6.57298 19.8952 6.63698C20.0552 6.74898 20.3272 6.80498 20.7112 6.80498C21.0312 6.80498 21.3832 6.77298 21.7672 6.70898C22.1512 6.64498 22.5352 6.56498 22.9192 6.46898C23.3192 6.35698 23.7032 6.24498 24.0712 6.13298C24.4392 6.00498 24.7752 5.89298 25.0792 5.79698C25.3192 5.71698 25.4712 5.67698 25.5352 5.67698ZM20.9272 3.63698C20.8472 3.71698 20.7752 3.78898 20.7112 3.85298C20.6472 3.90098 20.6152 3.93298 20.6152 3.94898C20.5992 3.96498 20.6392 3.94898 20.7352 3.90098C20.8312 3.83698 20.9912 3.74098 21.2152 3.61298C21.4872 3.45298 21.7752 3.27698 22.0792 3.08498C22.3832 2.89298 22.6872 2.69298 22.9912 2.48498C23.2952 2.27698 23.5832 2.07698 23.8552 1.88498C24.1272 1.67698 24.3672 1.49298 24.5752 1.33298C24.7032 1.20498 24.8472 1.06898 25.0072 0.924976C25.1672 0.780976 25.2552 0.692976 25.2712 0.660976C25.2872 0.644976 25.2872 0.636976 25.2712 0.636976C25.2712 0.636976 25.2312 0.652976 25.1512 0.684976C24.9432 0.764976 24.6792 0.900976 24.3592 1.09298C24.0392 1.26898 23.6952 1.49298 23.3272 1.76498C22.9592 2.02098 22.5672 2.30898 22.1512 2.62898C21.7352 2.94898 21.3272 3.28498 20.9272 3.63698ZM32.4866 5.31698C32.4866 5.39698 32.4546 5.45298 32.3906 5.48498C32.3266 5.50098 32.1346 5.54898 31.8146 5.62898C31.5426 5.69298 31.2706 5.76498 30.9986 5.84498C30.7426 5.92498 30.4706 6.01298 30.1826 6.10898C29.8946 6.20498 29.5826 6.31698 29.2466 6.44498C28.9106 6.57298 28.5346 6.72498 28.1186 6.90098L27.7346 7.06898L27.3986 7.42898C27.2386 7.60498 27.0786 7.78098 26.9186 7.95698C26.7586 8.13298 26.5666 8.32498 26.3426 8.53298C26.1346 8.75698 25.8866 9.01298 25.5986 9.30098C25.3266 9.58898 24.9906 9.93298 24.5906 10.333C24.2066 10.717 23.8866 11.037 23.6306 11.293C23.3586 11.565 23.1346 11.789 22.9586 11.965C22.7666 12.141 22.6066 12.293 22.4786 12.421C22.3346 12.565 22.1906 12.693 22.0466 12.805C20.9106 13.813 20.0226 14.413 19.3826 14.605C19.3346 14.621 19.2786 14.629 19.2146 14.629C19.1346 14.629 19.0626 14.629 18.9986 14.629H18.8786C18.5906 14.549 18.4466 14.357 18.4466 14.053C18.4466 13.669 18.6386 13.221 19.0226 12.709C19.3906 12.213 19.8306 11.717 20.3426 11.221C20.8546 10.741 21.3746 10.293 21.9026 9.87698C22.4306 9.47698 22.8466 9.17298 23.1506 8.96498C23.7426 8.56498 24.3426 8.19698 24.9506 7.86098C25.5586 7.54098 26.2466 7.21298 27.0146 6.87698C27.1906 6.79698 27.2946 6.74098 27.3266 6.70898C27.3746 6.67698 27.4786 6.57298 27.6386 6.39698C27.7986 6.22098 27.9586 6.01298 28.1186 5.77298C28.2946 5.53298 28.4306 5.33298 28.5266 5.17298C28.5426 5.14098 28.5506 5.12498 28.5506 5.12498C28.5186 5.12498 28.4386 5.16498 28.3106 5.24498C28.1986 5.32498 28.1266 5.38098 28.0946 5.41298C27.9826 5.52498 27.9106 5.58098 27.8786 5.58098C27.8626 5.56498 27.8466 5.55698 27.8306 5.55698C27.7986 5.55698 27.7746 5.56498 27.7586 5.58098C27.7426 5.58098 27.7026 5.59698 27.6386 5.62898C27.5266 5.69298 27.3426 5.79698 27.0866 5.94098C26.8466 6.06898 26.5906 6.19698 26.3186 6.32498C26.0626 6.43698 25.8066 6.54098 25.5506 6.63698C25.2946 6.73298 25.0946 6.78098 24.9506 6.78098C24.8226 6.78098 24.7186 6.73298 24.6386 6.63698C24.5746 6.54098 24.5746 6.42098 24.6386 6.27698C24.7186 6.11698 24.9026 5.92498 25.1906 5.70098C25.4946 5.47698 25.8306 5.26098 26.1986 5.05298C26.5666 4.84498 26.9266 4.66898 27.2786 4.52498C27.6466 4.38098 27.9426 4.30898 28.1666 4.30898C28.2626 4.30898 28.3266 4.31698 28.3586 4.33298C28.4706 4.36498 28.5426 4.42898 28.5746 4.52498C28.5906 4.52498 28.6226 4.51698 28.6706 4.50098C28.7026 4.50098 28.7346 4.50098 28.7666 4.50098C28.7986 4.48498 28.8306 4.47698 28.8626 4.47698C28.9906 4.47698 29.0866 4.52498 29.1506 4.62098C29.1666 4.65298 29.1746 4.68498 29.1746 4.71698C29.1906 4.73298 29.1906 4.77298 29.1746 4.83698C29.1746 4.91698 29.1426 5.02098 29.0786 5.14898C29.0306 5.27698 28.9586 5.40498 28.8626 5.53298C28.7826 5.66098 28.7026 5.78898 28.6226 5.91698C28.5426 6.02898 28.4786 6.11698 28.4306 6.18098C28.3506 6.29298 28.3186 6.34898 28.3346 6.34898C28.3826 6.30098 28.5906 6.21298 28.9586 6.08498C29.3266 5.94098 29.7346 5.79698 30.1826 5.65298C30.6306 5.50898 31.0546 5.38898 31.4546 5.29298C31.8706 5.18098 32.1426 5.12498 32.2706 5.12498C32.3026 5.12498 32.3506 5.14098 32.4146 5.17298C32.4626 5.22098 32.4866 5.26898 32.4866 5.31698ZM27.9746 4.83698C27.9906 4.80498 27.9746 4.79698 27.9266 4.81298C27.8626 4.82898 27.7506 4.86898 27.5906 4.93298C27.4466 4.98098 27.3106 5.02898 27.1826 5.07698C26.9266 5.20498 26.6226 5.37298 26.2706 5.58098C25.9346 5.78898 25.6866 5.95698 25.5266 6.08498L25.4786 6.13298L25.5746 6.10898C25.6066 6.07698 25.6546 6.05298 25.7186 6.03698C25.7826 6.00498 25.8466 5.97298 25.9106 5.94098C25.9906 5.90898 26.1346 5.84498 26.3426 5.74898C26.5506 5.65298 26.7586 5.54898 26.9666 5.43698C27.1906 5.32498 27.3986 5.21298 27.5906 5.10098C27.7826 4.98898 27.9106 4.90098 27.9746 4.83698ZM26.5826 7.57298L26.3906 7.66898C25.7986 7.94098 25.1426 8.29298 24.4226 8.72498C23.7026 9.15698 22.9986 9.62898 22.3106 10.141C21.6066 10.653 20.9666 11.197 20.3906 11.773C19.8146 12.349 19.3826 12.925 19.0946 13.501C19.0146 13.661 18.9666 13.797 18.9506 13.909C18.9186 14.037 18.9186 14.117 18.9506 14.149C19.0306 14.149 19.1026 14.141 19.1666 14.125C19.2306 14.125 19.3026 14.117 19.3826 14.101C19.6546 14.005 19.9746 13.829 20.3426 13.573C20.6946 13.317 21.0866 13.005 21.5186 12.637C21.7106 12.477 22.0306 12.181 22.4786 11.749C22.9106 11.317 23.3746 10.845 23.8706 10.333C24.3826 9.83698 24.8706 9.34898 25.3346 8.86898C25.8146 8.38898 26.1666 8.02898 26.3906 7.78898L26.5826 7.57298ZM36.9718 5.82098C37.0838 5.82098 37.1398 5.88498 37.1398 6.01298C37.1398 6.06098 37.1158 6.10098 37.0678 6.13298C36.9398 6.24498 36.6438 6.37298 36.1797 6.51698C35.7318 6.64498 35.2358 6.77298 34.6918 6.90098C34.1638 7.01298 33.6518 7.10898 33.1558 7.18898C32.6598 7.26898 32.3078 7.30898 32.0998 7.30898C31.9238 7.30898 31.8038 7.30098 31.7398 7.28498C31.3878 7.23698 31.1958 7.06898 31.1638 6.78098C31.1318 6.60498 31.1878 6.39698 31.3318 6.15698C31.4758 5.90098 31.6758 5.64498 31.9318 5.38898C32.2518 5.06898 32.6038 4.81298 32.9878 4.62098C33.3718 4.41298 33.6918 4.30898 33.9478 4.30898C34.0758 4.30898 34.1798 4.34098 34.2598 4.40498C34.3558 4.45298 34.4038 4.54098 34.4038 4.66898C34.3878 4.81298 34.2918 4.97298 34.1158 5.14898C33.9398 5.30898 33.7398 5.46098 33.5158 5.60498C33.2918 5.73298 33.0598 5.84498 32.8198 5.94098C32.5798 6.03698 32.3958 6.08498 32.2678 6.08498C32.1878 6.08498 32.1158 6.06898 32.0518 6.03698C32.0198 6.02098 31.9958 6.02098 31.9798 6.03698C31.9638 6.05298 31.9158 6.12498 31.8358 6.25298C31.7078 6.44498 31.6438 6.59698 31.6438 6.70898V6.78098L31.7638 6.82898C31.8118 6.84498 31.9078 6.85298 32.0518 6.85298C32.3558 6.85298 32.7078 6.82898 33.1078 6.78098C33.5078 6.71698 33.9078 6.63698 34.3078 6.54098C34.7238 6.44498 35.1238 6.34898 35.5078 6.25298C35.8918 6.14098 36.2278 6.03698 36.5158 5.94098C36.7558 5.86098 36.9078 5.82098 36.9718 5.82098ZM32.8198 5.26898C32.7238 5.33298 32.6198 5.41298 32.5078 5.50898C32.3958 5.58898 32.3478 5.63698 32.3638 5.65298L32.4118 5.62898C32.4278 5.62898 32.4358 5.62898 32.4358 5.62898C32.4518 5.61298 32.4678 5.60498 32.4838 5.60498C32.6278 5.55698 32.8118 5.46898 33.0358 5.34098C33.2758 5.21298 33.4758 5.08498 33.6358 4.95698C33.7798 4.82898 33.8198 4.77298 33.7558 4.78898C33.6438 4.82098 33.4998 4.88498 33.3238 4.98098C33.1478 5.06098 32.9798 5.15698 32.8198 5.26898ZM45.4863 5.96498C45.5663 6.06098 45.5663 6.16498 45.4863 6.27698C45.4063 6.37298 45.2623 6.46098 45.0543 6.54098C44.8463 6.62098 44.6143 6.69298 44.3583 6.75698C44.1183 6.82098 43.8703 6.86898 43.6143 6.90098C43.3743 6.93298 43.1823 6.94898 43.0383 6.94898C42.8303 6.94898 42.7023 6.94098 42.6543 6.92498C42.3343 6.79698 42.2143 6.51698 42.2943 6.08498C42.2943 5.97298 42.3263 5.83698 42.3903 5.67698C42.4063 5.62898 42.4143 5.56498 42.4143 5.48498L42.4383 5.41298C42.4383 5.34898 41.8783 5.63698 40.7583 6.27698C40.4703 6.45298 40.2063 6.60498 39.9663 6.73298C39.7423 6.84498 39.6143 6.90898 39.5823 6.92498C39.4543 6.95698 39.3743 6.97298 39.3423 6.97298C39.2143 6.97298 39.1103 6.90898 39.0303 6.78098C38.9663 6.66898 38.9503 6.53298 38.9823 6.37298C39.0303 6.19698 39.1343 5.92498 39.2943 5.55698L39.5103 5.07698L39.4383 5.10098C39.2943 5.18098 38.9983 5.36498 38.5503 5.65298C38.1023 5.94098 37.5743 6.30098 36.9663 6.73298C36.6623 6.95698 36.4463 7.10898 36.3183 7.18898C36.2063 7.26898 36.1103 7.30898 36.0303 7.30898C36.0143 7.30898 35.9983 7.30898 35.9823 7.30898C35.9823 7.29298 35.9743 7.28498 35.9583 7.28498C35.8783 7.25298 35.8223 7.20498 35.7903 7.14098C35.7743 7.07698 35.7823 7.00498 35.8143 6.92498C35.8143 6.89298 35.8223 6.86098 35.8383 6.82898C35.8543 6.79698 35.9023 6.72498 35.9823 6.61298C36.0783 6.50098 36.2223 6.32498 36.4143 6.08498C36.6223 5.84498 36.9023 5.50898 37.2543 5.07698C37.3983 4.90098 37.5103 4.76498 37.5903 4.66898C37.6863 4.55698 37.7583 4.47698 37.8063 4.42898C37.8703 4.36498 37.9183 4.33298 37.9503 4.33298C37.9823 4.31698 38.0143 4.30898 38.0463 4.30898C38.1583 4.34098 38.2143 4.40498 38.2143 4.50098C38.2463 4.53298 38.2463 4.58098 38.2143 4.64498C38.1983 4.74098 38.1823 4.84498 38.1663 4.95698C38.1503 5.05298 38.1423 5.10898 38.1423 5.12498C38.1103 5.20498 38.0543 5.24498 37.9743 5.24498C37.9583 5.24498 37.9343 5.23698 37.9023 5.22098C37.8703 5.20498 37.8543 5.18898 37.8543 5.17298C37.8383 5.15698 37.8063 5.18098 37.7583 5.24498C37.7103 5.29298 37.6143 5.40498 37.4703 5.58098C37.4383 5.62898 37.3983 5.68498 37.3503 5.74898C37.3183 5.79698 37.2863 5.83698 37.2543 5.86898C37.2223 5.91698 37.1983 5.94898 37.1823 5.96498C37.1663 5.96498 37.1743 5.95698 37.2063 5.94098C37.7183 5.57298 38.1823 5.26098 38.5983 5.00498C39.0303 4.74898 39.3183 4.58898 39.4623 4.52498C39.5583 4.47698 39.6543 4.45298 39.7503 4.45298C39.9423 4.45298 40.0543 4.55698 40.0863 4.76498C40.1023 4.82898 40.0863 4.91698 40.0383 5.02898C40.0063 5.14098 39.9343 5.31698 39.8223 5.55698C39.7423 5.74898 39.6623 5.93298 39.5823 6.10898C39.5183 6.26898 39.4863 6.36498 39.4863 6.39698C39.4863 6.41298 39.5503 6.38898 39.6783 6.32498C39.8063 6.24498 40.1263 6.06098 40.6383 5.77298C41.2463 5.42098 41.6783 5.18098 41.9343 5.05298C42.2063 4.92498 42.4063 4.86098 42.5343 4.86098H42.6063C42.7343 4.89298 42.8223 4.95698 42.8703 5.05298C42.9023 5.10098 42.9183 5.18898 42.9183 5.31698C42.9183 5.42898 42.8863 5.58098 42.8223 5.77298C42.7583 6.07698 42.7343 6.26898 42.7503 6.34898C42.7503 6.41298 42.8623 6.44498 43.0863 6.44498C43.3263 6.42898 43.6143 6.38898 43.9503 6.32498C44.2863 6.24498 44.6623 6.13298 45.0783 5.98898C45.2223 5.94098 45.3183 5.91698 45.3663 5.91698C45.3823 5.91698 45.4223 5.93298 45.4863 5.96498Z" fill="#E5E5E5"/>
</svg>
